# xmcd
#
# Track frame offsets: 
#        150
#        15528
#        29909
#        49485
#        71742
#        90060
#        106237
#        127997
#        148065
#        165780
#
# Disc length: 2458 seconds
#
# Revision: 0
# Processed by: cddbd v1.5.2PL0 Copyright (c) Steve Scherf et al.
# Submitted via: ExactAudioCopyFreeDBPlugin 1.0
#
DISCID=7e09980a
DTITLE=The Wayne Allchin Band - Close to Home
DYEAR=2015
DGENRE=Blues
TTITLE0=Tell Me Why
TTITLE1=This Time Around
TTITLE2=Crazy
TTITLE3=Carry On
TTITLE4=3 am
TTITLE5=Take Me Home
TTITLE6=Fall Away
TTITLE7=Left Standing
TTITLE8=Up Ahead
TTITLE9=Hey Hey
EXTD=
EXTT0=
EXTT1=
EXTT2=
EXTT3=
EXTT4=
EXTT5=
EXTT6=
EXTT7=
EXTT8=
EXTT9=
PLAYORDER=
